<?xml version="1.0" encoding="utf-8"?>
<!-- Generator: Adobe Illustrator 23.0.1, SVG Export Plug-In . SVG Version: 6.00 Build 0)  -->
<svg version="1.1" id="レイヤー_1" xmlns="http://www.w3.org/2000/svg" xmlns:xlink="http://www.w3.org/1999/xlink" x="0px"
	 y="0px" viewBox="0 0 64 64" style="enable-background:new 0 0 64 64;" xml:space="preserve">
<style type="text/css">
	.st0{fill:none;}
	.st1{fill:#FFFFFF;}
	.st2{fill:#040000;}
</style>
<title>hotel</title>
<g>
	<rect x="38.2" y="13.9" class="st0" width="4.8" height="0"/>
	<polygon class="st0" points="20.8,27.4 25.6,27.4 25.6,27.3 20.8,27.3 	"/>
	<rect x="38.4" y="45.1" class="st0" width="4.8" height="0.1"/>
	<rect x="38.4" y="31.5" class="st0" width="4.8" height="0"/>
	<polygon class="st0" points="20.8,31.5 25.6,31.5 25.6,31.5 20.8,31.5 	"/>
	<rect x="29.6" y="27.3" class="st0" width="4.8" height="0.1"/>
	<rect x="29.6" y="31.5" class="st0" width="4.8" height="0"/>
	<rect x="29.6" y="45.1" class="st0" width="4.8" height="0.1"/>
	<rect x="29.6" y="18.7" class="st0" width="4.8" height="0.1"/>
	<path class="st0" d="M47.6,11.2c-0.1-0.1-0.3-0.2-0.5-0.2l-7.8-2.6l7.8,2.7C47.3,11.1,47.4,11.1,47.6,11.2z"/>
	<path class="st0" d="M35.7,58.1h12.7c0,0,0,0,0-0.1L35.7,58.1L35.7,58.1z"/>
	<path class="st0" d="M60.2,23h-7.9c-1.7,0-2,0.8-2.1,1.1v34h9.9c1-0.1,1.3-1.3,1.3-1.7V24.2v-0.1c-0.1-0.3-0.2-0.6-0.4-0.8
		S60.5,23,60.2,23z M58.5,47.1h-4.8v-4.8h4.8V47.1z M58.5,38.7h-4.8v-4.8h4.8V38.7z M58.5,30.4h-4.8v-4.8h4.8V30.4z"/>
	<rect x="38.4" y="27.3" class="st0" width="4.8" height="0.1"/>
	<rect x="28.3" y="48.9" class="st0" width="7.4" height="0.1"/>
	<path class="st0" d="M11.6,23h-8c-0.2,0-0.5,0.2-0.7,0.3c-0.2,0.2-0.3,0.5-0.3,0.8v32.3v0.1C2.6,56.8,3,58,4,58.1h9.7v-34
		C13.7,23.9,13.5,23,11.6,23z M10.3,47H5.5v-4.8h4.8V47z M10.3,38.7H5.5v-4.8h4.8V38.7z M10.3,30.4H5.5v-4.8h4.8V30.4z"/>
	<polygon class="st0" points="25.7,18.7 21,18.7 21,18.8 25.8,18.8 25.8,14 25.7,14 	"/>
	<polygon class="st0" points="20.8,45.2 25.6,45.2 25.6,45.1 20.8,45.1 	"/>
	<path class="st0" d="M48.4,12.6L48.4,12.6c0-0.2,0-0.3-0.1-0.5C48.4,12.3,48.4,12.5,48.4,12.6z"/>
	<path class="st1" d="M47.6,11.2c-0.1-0.1-0.3-0.1-0.5-0.2l-7.8-2.7L32,5.9L17,11c-0.8,0.2-1.4,0.9-1.4,1.7V24v0c0,0,0,0,0,0.1
		c0,0,0,0,0,0v34h12.7V49v-0.1h7.4V49v9h12.7c0-1.8,0-27.9,0-33v-0.8V24c0,0,0,0,0,0c0-0.1,0-0.1,0-0.2V12.6c0-0.2,0-0.3-0.1-0.5
		C48.2,11.8,47.9,11.4,47.6,11.2z M25.6,40.4c0,0,0,4.6,0,4.7c0,0,0,0.1,0,0.1h-4.8v-0.1v-4.7v-0.1L25.6,40.4L25.6,40.4z M25.6,31.5
		c0,0.1,0,4.8,0,4.8v0h-4.8v0v-4.8v0L25.6,31.5C25.6,31.5,25.6,31.5,25.6,31.5z M25.6,22.6c0,0,0,4.6,0,4.7c0,0,0,0.1,0,0.1h-4.8
		v-0.1v-4.7v-0.1L25.6,22.6L25.6,22.6z M25.8,18.8H21v-0.1h-0.1v-4.8h4.8V14h0.1V18.8z M34.4,40.4v4.7v0.1h-4.8v-0.1v-4.7v-0.1
		L34.4,40.4L34.4,40.4z M34.4,31.5v4.8v0h-4.8v0v-4.8v0L34.4,31.5L34.4,31.5z M34.4,22.6v4.7v0.1h-4.8v-0.1v-4.7v-0.1L34.4,22.6
		L34.4,22.6z M34.4,14v4.7v0.1h-4.8v-0.1V14v-0.1L34.4,14L34.4,14z M38.2,18.7v-4.8v0H43v0v4.8v0L38.2,18.7L38.2,18.7z M43.2,40.4
		v4.7v0.1h-4.8v-0.1v-4.7v-0.1L43.2,40.4L43.2,40.4z M43.2,31.5v4.8v0h-4.8v0v-4.8v0L43.2,31.5L43.2,31.5z M43.2,22.6v4.7v0.1h-4.8
		v-0.1v-4.7v-0.1L43.2,22.6L43.2,22.6z"/>
	<rect x="5.5" y="25.6" width="4.8" height="4.8"/>
	<rect x="5.5" y="33.9" width="4.8" height="4.8"/>
	<rect x="5.5" y="42.2" width="4.8" height="4.8"/>
	<polygon points="25.7,14 25.7,13.9 20.9,13.9 20.9,18.7 21,18.7 25.7,18.7 	"/>
	<path d="M20.8,22.6v4.7h4.8c0-0.1,0-4.7,0-4.7v-0.1L20.8,22.6L20.8,22.6z"/>
	<path d="M20.8,36.3L20.8,36.3l4.8,0v0c0,0,0-4.7,0-4.8h-4.8V36.3z"/>
	<path d="M20.8,40.4v4.7h4.8c0-0.1,0-4.7,0-4.7v-0.1L20.8,40.4L20.8,40.4z"/>
	<path class="st2" d="M60.2,21.3h-7.9c-0.9,0-1.6,0.2-2.1,0.4v-9c0-1.6-1.1-2.9-2.6-3.3L32,4.1L16.5,9.3c-1.5,0.4-2.6,1.7-2.7,3.3v9
		c-0.6-0.3-1.3-0.4-2.1-0.4H3.8c-0.1,0-0.2,0-0.2,0c-0.8,0-1.5,0.4-2,0.9c-0.5,0.6-0.8,1.3-0.8,2v32.1c0,0.1,0,0.3,0,0.5
		c0.3,1.4,1.2,2.9,3.1,3.1h10.8h45.5c1.8-0.2,2.7-1.7,3-3.1c0-0.1,0-0.3,0-0.4v-32c0-0.1,0-0.2,0-0.2C63.1,22.5,61.8,21.3,60.2,21.3
		z M13.7,58.1H4c-1-0.1-1.4-1.3-1.4-1.6v-0.1V24.1c0-0.3,0.1-0.6,0.3-0.8C3.1,23.2,3.4,23,3.6,23h8c1.9,0,2.1,0.9,2.1,1.1V58.1z
		 M48.4,12.6v11.2c0,0.1,0,0.1,0,0.2c0,0,0,0,0,0v0.2V25c0,5,0,31.2,0,33c0,0.1,0,0.1,0,0.1H35.7h-7.4H15.6v-34c0,0,0,0,0,0
		c0-0.1,0-0.1,0-0.1v0V12.7c0-0.8,0.6-1.5,1.4-1.7l15-5.1l7.3,2.5l7.8,2.6c0.2,0,0.3,0.1,0.5,0.2c0.4,0.2,0.6,0.6,0.8,1
		C48.4,12.3,48.4,12.5,48.4,12.6L48.4,12.6z M61.4,24.2v32.2c0,0.4-0.3,1.6-1.3,1.7h-9.9v-34c0.1-0.3,0.4-1.1,2.1-1.1h7.9
		c0.3,0,0.6,0.1,0.8,0.3s0.3,0.5,0.4,0.8V24.2z"/>
	<rect x="53.7" y="25.6" width="4.8" height="4.8"/>
	<rect x="53.7" y="33.9" width="4.8" height="4.8"/>
	<rect x="53.7" y="42.3" width="4.8" height="4.8"/>
	<polygon points="43,18.7 43,13.9 38.2,13.9 38.2,18.7 38.2,18.7 43,18.7 	"/>
	<polygon points="38.4,22.6 38.4,27.3 43.2,27.3 43.2,22.6 43.2,22.5 38.4,22.5 	"/>
	<polygon points="38.4,36.3 38.4,36.3 43.2,36.3 43.2,36.3 43.2,31.5 38.4,31.5 	"/>
	<polygon points="38.4,40.4 38.4,45.1 43.2,45.1 43.2,40.4 43.2,40.3 38.4,40.3 	"/>
	<polygon points="29.6,14 29.6,18.7 34.4,18.7 34.4,14 34.4,13.9 29.6,13.9 	"/>
	<polygon points="29.6,22.6 29.6,27.3 34.4,27.3 34.4,22.6 34.4,22.5 29.6,22.5 	"/>
	<polygon points="29.6,36.3 29.6,36.3 34.4,36.3 34.4,36.3 34.4,31.5 29.6,31.5 	"/>
	<polygon points="29.6,40.4 29.6,45.1 34.4,45.1 34.4,40.4 34.4,40.3 29.6,40.3 	"/>
	<polygon points="35.7,49 28.3,49 28.3,58.1 35.7,58.1 35.7,58 	"/>
</g>
</svg>
